<svg xmlns="http://www.w3.org/2000/svg" viewBox="0 0 147 30"><path d="M131.012 11.412v15.163A3.43 3.43 0 01127.586 30a3.43 3.43 0 01-3.254-2.354l-.002-.007a.928.928 0 01.894-1.178.93.93 0 01.882.632l.002.005a1.57 1.57 0 003.046-.523l-.002-15.191v-.004c0-.047.034-.084.08-.089h.007a7.963 7.963 0 011.689.015h.004a.089.089 0 01.079.088v.018zm-17.848-.143a.105.105 0 01-.153-.132l.005-.008C115.892 4.577 122.438 0 130.052 0c7.617 0 14.165 4.58 17.038 11.139l.002.007c.006.013.01.026.01.041a.105.105 0 01-.104.105.118.118 0 01-.05-.013l-.014-.005c-1.32-.778-3.162-1.26-5.201-1.26-2.354 0-4.446.643-5.773 1.64l-.006.005a.105.105 0 01-.128 0l-.005-.004c-1.33-.998-3.423-1.641-5.777-1.641-2.353 0-4.445.643-5.774 1.641l-.005.003a.107.107 0 01-.124.006l-.009-.008c-1.328-.998-3.423-1.642-5.777-1.642-2.03 0-3.863.477-5.18 1.248l-.011.007z" fill="#F50002"/><path d="M108.593 29.507l.43-2.687c.482.108 3.05.491 4.577.491 2.06 0 2.64-.356 2.819-2.017.17-1.52-.078-1.72-2.392-2.46-3.676-1.186-4.506-1.791-4.133-5.199.36-3.27 2.057-4.435 5.776-4.435 1.817 0 3.804.248 4.52.449l-.346 2.667c-.859-.137-2.995-.407-4.494-.407-1.659 0-2.22.428-2.366 1.75-.17 1.546.124 1.703 2.356 2.42 3.52 1.164 4.624 1.77 4.243 5.196-.394 3.583-2.06 4.705-6.32 4.705a22.91 22.91 0 01-4.67-.473zm-2.528.29h-3.096l-1.983-6.434h-2.513l-.712 6.434h-3.049l1.804-16.394h6.01c3.56 0 5.263.85 4.8 5.019-.308 2.846-1.415 3.986-3.382 4.545l2.12 6.83zm-4.533-9.034c1.437 0 2.416-.054 2.681-2.454.267-2.42-.837-2.305-2.226-2.305h-2.71l-.52 4.759h2.775zm-18.076-7.36h9.668l-.301 2.733h-6.55l-.431 3.897h5.312l-.304 2.768h-5.307l-.474 4.254h6.761l-.295 2.742h-9.88l1.8-16.395zm-3.553 13.652c-.384 1.737-1.14 2.742-2.886 2.742H69.26l1.804-16.394h3.114l-1.503 13.652h7.228zm-21.88-13.653h9.665l-.302 2.734h-6.55l-.428 3.897h5.312l-.308 2.768h-5.306l-.473 4.254h6.763l-.297 2.742h-9.882l1.806-16.395zm-16.09 0h3.225l2.232 11.981 4.713-11.98h3.116l-6.812 16.484h-3.16l-3.315-16.485zM30.43 29.797h-3.116l7.05-16.484h2.993l3.246 16.484h-3.202l-.508-2.731h-5.33l-1.133 2.731zm4.901-12.189l-2.7 6.884h3.783l-1.083-6.884zm-9.749 12.19h-3.07l-1.984-6.435h-2.54l-.71 6.434h-3.046l1.802-16.394h6.005c3.564 0 5.266.85 4.806 5.019-.313 2.846-1.417 3.986-3.382 4.545l2.12 6.83zM21.1 20.762c1.435 0 2.416-.054 2.678-2.454.267-2.42-.885-2.305-2.224-2.305h-2.758l-.527 4.759H21.1zM.302 13.403h13.373c-.383 1.734-1.14 2.743-2.885 2.743H8.217L6.738 29.797h-3.14L5.1 16.136H0l.302-2.734z"/></svg>